<?xml version="1.0" encoding="UTF-8"?>
<!-- Generator: visioncortex VTracer 0.6.3 -->
<svg version="1.1" xmlns="http://www.w3.org/2000/svg" width="1280" height="1280">
<path d="M0 0 C0.85 -0.01 1.7 -0.01 2.58 -0.02 C3.51 -0.02 4.44 -0.02 5.4 -0.02 C6.83 -0.03 6.83 -0.03 8.29 -0.03 C10.31 -0.04 12.34 -0.04 14.37 -0.04 C17.45 -0.04 20.53 -0.06 23.61 -0.08 C25.58 -0.08 27.55 -0.08 29.52 -0.09 C30.43 -0.09 31.35 -0.1 32.29 -0.11 C37.43 -0.09 42.09 0.41 47.08 1.69 C49.71 2.32 52.29 2.46 54.99 2.58 C66.36 3.34 77.49 5.62 88.49 8.53 C91.17 9.24 91.17 9.24 94.68 9.65 C101.88 10.73 108.71 13.75 115.51 16.28 C117.9 17.16 117.9 17.16 120.03 17.65 C122.28 18.22 124.34 19.02 126.49 19.9 C127.35 20.25 128.22 20.6 129.11 20.96 C134.08 23 139.04 25.07 143.99 27.15 C143.99 27.81 143.99 28.47 143.99 29.15 C144.58 29.32 145.17 29.49 145.78 29.66 C150.72 31.17 154 32.8 157.99 36.15 C159.44 36.61 159.44 36.61 160.93 37.08 C164.71 38.39 166.96 40.57 169.99 43.15 C171.65 43.82 173.32 44.49 174.99 45.15 C175.65 46.14 176.31 47.13 176.99 48.15 C177.89 48.3 177.89 48.3 178.8 48.46 C181.74 49.38 182.79 51.28 184.62 53.65 C186.7 55.92 189.19 56.97 191.99 58.15 C191.99 58.81 191.99 59.47 191.99 60.15 C192.57 60.41 193.15 60.68 193.75 60.95 C199.81 64.19 204.43 69.52 208.8 74.71 C210.6 76.72 212.44 78.6 214.37 80.49 C215.29 81.39 215.29 81.39 216.23 82.31 C217.45 83.5 218.69 84.69 219.93 85.87 C223.57 89.42 226.31 92.98 228.9 97.35 C230.24 99.55 231.8 101.39 233.55 103.27 C240.99 111.54 240.99 111.54 240.99 116.15 C241.95 116.52 241.95 116.52 242.93 116.9 C244.99 118.15 244.99 118.15 245.49 120.02 C245.66 120.72 245.82 121.42 245.99 122.15 C247.3 123.5 248.64 124.83 249.99 126.15 C252.43 129.63 252.99 130.77 252.99 135.15 C253.98 135.48 254.97 135.81 255.99 136.15 C257.27 138.22 257.27 138.22 258.49 140.83 C258.92 141.74 259.35 142.64 259.79 143.57 C260.18 144.42 260.58 145.27 260.99 146.15 C261.86 147.78 261.86 147.78 262.74 149.46 C263.95 152.05 264.58 154.32 264.99 157.15 C265.65 157.15 266.31 157.15 266.99 157.15 C267.24 157.74 267.5 158.33 267.76 158.94 C269.97 164.01 269.97 164.01 272.68 168.83 C274.24 171.58 274.5 174.05 274.99 177.15 C275.65 177.48 276.31 177.81 276.99 178.15 C276.99 179.8 276.99 181.45 276.99 183.15 C277.65 183.15 278.31 183.15 278.99 183.15 C280.17 185.92 281.12 188.61 281.93 191.52 C282.92 195.18 282.92 195.18 284.49 198.65 C285.98 202.11 286.97 205.52 287.99 209.15 C288.46 210.34 288.94 211.54 289.43 212.77 C291.26 217.48 292.22 222.35 293.24 227.29 C293.87 230.32 293.87 230.32 295.99 233.15 C296.71 236.57 297.29 239.98 297.85 243.43 C298.48 247.73 298.48 247.73 300.99 251.15 C301.19 253.31 301.19 253.31 301.12 255.77 C301.1 256.59 301.08 257.4 301.06 258.25 C301.03 259.19 301.03 259.19 300.99 260.15 C301.65 260.15 302.31 260.15 302.99 260.15 C303.22 262.2 303.45 264.25 303.67 266.3 C303.81 268.16 303.81 268.16 304.99 269.15 C305.28 271.89 305.44 274.63 305.61 277.38 C305.83 280.09 305.83 280.09 306.99 282.08 C308.4 284.98 308.38 287.63 308.55 290.83 C308.42 294.81 308.42 294.81 309.99 298.15 C310.13 299.61 310.22 301.08 310.27 302.55 C310.33 303.88 310.33 303.88 310.38 305.24 C310.42 306.18 310.45 307.12 310.49 308.08 C310.56 309.93 310.63 311.77 310.71 313.61 C310.74 314.43 310.77 315.25 310.8 316.1 C310.87 318.21 310.87 318.21 311.99 320.15 C312.11 322.39 312.17 324.64 312.2 326.89 C312.21 327.58 312.22 328.28 312.23 328.99 C312.26 331.28 312.28 333.58 312.31 335.87 C312.33 337.46 312.35 339.05 312.37 340.64 C312.42 344.82 312.47 349.01 312.52 353.2 C312.57 357.47 312.63 361.73 312.68 366 C312.79 374.38 312.89 382.76 312.99 391.15 C312.33 391.15 311.67 391.15 310.99 391.15 C310.97 391.96 310.94 392.77 310.91 393.61 C310.8 397.27 310.68 400.92 310.55 404.58 C310.51 405.86 310.47 407.14 310.43 408.46 C310.39 409.67 310.35 410.89 310.31 412.14 C310.27 413.27 310.23 414.39 310.2 415.55 C309.99 418.15 309.99 418.15 308.99 419.15 C308.7 422.41 308.54 425.67 308.37 428.95 C308.01 432 307.33 433.47 305.99 436.15 C305.73 438.37 305.55 440.6 305.43 442.83 C305.09 449.05 305.09 449.05 303.99 450.15 C303.71 452.4 303.54 454.65 303.37 456.92 C302.99 459.15 302.99 459.15 300.99 462.15 C300.82 464.14 300.82 464.14 300.99 466.21 C300.99 467.51 300.99 468.81 300.99 470.15 C300.33 470.81 299.67 471.47 298.99 472.15 C298.64 474.31 298.64 474.31 298.55 476.77 C298.18 481.47 297.5 487.64 293.99 491.15 C293.78 492.47 293.62 493.81 293.49 495.15 C293.1 499.03 293.1 499.03 291.99 500.15 C291.64 501.51 291.34 502.89 291.05 504.27 C289.88 509.73 288.46 515 286.43 520.21 C285.16 523.49 284.43 526.64 283.99 530.15 C283.33 530.15 282.67 530.15 281.99 530.15 C281.8 531.91 281.8 531.91 281.62 533.71 C281.13 537.69 280.18 541.32 278.99 545.15 C278.33 545.15 277.67 545.15 276.99 545.15 C276.87 546.16 276.74 547.17 276.62 548.21 C276.01 552.02 275.12 555.46 273.99 559.15 C273.33 559.15 272.67 559.15 271.99 559.15 C271.84 560.14 271.84 560.14 271.68 561.15 C270.95 564.31 269.9 567.17 268.71 570.18 C267.99 572.15 267.46 574.1 266.99 576.15 C266.33 576.15 265.67 576.15 264.99 576.15 C264.89 577.2 264.78 578.25 264.68 579.33 C264 583.1 263.06 585 260.99 588.15 C260.29 589.8 259.62 591.46 258.99 593.15 C257.52 596.85 256.02 600.53 254.49 604.21 C254.07 605.23 253.64 606.25 253.21 607.31 C252.21 609.64 251.16 611.9 249.99 614.15 C249.33 614.15 248.67 614.15 247.99 614.15 C247.82 615.23 247.82 615.23 247.64 616.33 C246.96 619.26 245.95 621.5 244.55 624.15 C242.83 627.43 241.34 630.69 239.99 634.15 C239.34 635.49 238.68 636.82 237.99 638.15 C237.33 638.15 236.67 638.15 235.99 638.15 C235.86 639.14 235.86 639.14 235.72 640.16 C234.76 644.07 233.07 647.39 231.24 650.96 C230.88 651.67 230.52 652.39 230.14 653.12 C227.99 657.33 225.74 661.4 223.14 665.35 C221.79 667.46 220.58 669.63 219.37 671.83 C218.95 672.58 218.54 673.32 218.12 674.09 C217.75 674.77 217.37 675.45 216.99 676.15 C215.3 679.21 215.3 679.21 213.99 681.15 C213.33 681.15 212.67 681.15 211.99 681.15 C211.84 682.26 211.84 682.26 211.68 683.4 C210.94 686.35 209.87 687.8 207.99 690.15 C207.66 691.14 207.33 692.13 206.99 693.15 C206.33 693.15 205.67 693.15 204.99 693.15 C204.91 693.86 204.82 694.57 204.73 695.3 C203.83 698.77 202.29 700.81 200.12 703.65 C197.52 707.06 195.19 710.47 192.99 714.15 C192.33 714.81 191.67 715.47 190.99 716.15 C190.85 716.81 190.7 717.47 190.55 718.15 C189.99 720.15 189.99 720.15 186.99 722.15 C186.68 722.97 186.37 723.8 186.05 724.65 C184.99 727.15 184.99 727.15 182.93 728.15 C182.29 728.48 181.65 728.81 180.99 729.15 C180.85 729.9 180.72 730.65 180.58 731.42 C179.88 734.64 178.68 736.23 176.62 738.77 C175.71 739.9 175.71 739.9 174.78 741.06 C172.99 743.15 172.99 743.15 171.31 744.77 C169.81 746.14 169.81 746.14 169.18 748.46 C167.77 751.64 165.94 753.31 163.44 755.67 C161.53 757.61 160.32 759.78 158.99 762.15 C157.66 763.81 156.32 765.48 154.99 767.15 C154.5 767.99 154 768.84 153.49 769.71 C151.92 772.27 150.11 774.03 147.99 776.15 C147.58 776.89 147.17 777.63 146.74 778.4 C144.59 781.78 141.94 784.25 139.03 786.99 C136.86 789.15 136.86 789.15 135.08 792.06 C132.12 796.43 128.37 799.75 124.55 803.36 C121.91 805.96 121.91 805.96 120.64 808.99 C118.83 812.44 116.84 814.67 114.09 817.42 C113.36 818.15 113.36 818.15 112.62 818.9 C111.03 820.49 109.43 822.08 107.83 823.67 C106.72 824.78 105.61 825.89 104.49 827.01 C102.17 829.33 99.84 831.65 97.51 833.96 C94.52 836.93 91.54 839.91 88.56 842.9 C86.27 845.19 83.97 847.48 81.67 849.77 C80.57 850.87 79.47 851.97 78.37 853.07 C76.84 854.6 75.3 856.13 73.76 857.65 C72.88 858.52 72.01 859.39 71.11 860.29 C68.99 862.15 68.99 862.15 66.99 862.15 C66.99 862.81 66.99 863.47 66.99 864.15 C65.52 865.15 65.52 865.15 63.49 866.27 C59.3 868.76 56.23 871.78 52.88 875.29 C50.44 877.69 47.88 879.33 44.99 881.15 C44.47 881.66 43.96 882.18 43.43 882.71 C41.99 884.15 41.99 884.15 39.55 885.58 C36.94 887.03 36.94 887.03 35.05 889.15 C32.99 891.15 32.99 891.15 29.99 892.58 C26.45 894.43 24.99 895.67 22.99 899.15 C22.6 901.69 22.42 904.21 22.26 906.78 C21.91 909.82 20.75 911.68 18.99 914.15 C18.74 914.95 18.5 915.75 18.24 916.58 C16.41 920.33 13.48 922.88 9.99 925.15 C9 925.15 8.01 925.15 6.99 925.15 C7.41 928.78 9.23 930.8 11.58 933.5 C17.99 940.99 17.99 940.99 17.99 945.15 C18.65 945.15 19.31 945.15 19.99 945.15 C20.22 945.83 20.44 946.51 20.68 947.21 C22.07 950.32 23.78 952.72 25.87 955.4 C26.99 957.15 26.99 957.15 27.52 959.3 C27.75 960.21 27.75 960.21 27.99 961.15 C28.65 961.48 29.31 961.81 29.99 962.15 C29.99 963.8 29.99 965.45 29.99 967.15 C30.61 967.36 31.22 967.58 31.85 967.8 C34.79 969.65 35.14 971.45 36.18 974.71 C37.1 978.21 37.1 978.21 38.99 981.15 C39.15 983.87 39.22 986.55 39.24 989.27 C39.27 990.39 39.27 990.39 39.3 991.54 C39.35 998.22 37.83 1002.91 33.5 1008.16 C32.57 1009.09 31.64 1010.01 30.68 1010.96 C29.75 1011.89 28.83 1012.83 27.88 1013.79 C22.48 1018.19 17.09 1018.43 10.38 1018.8 C7.81 1018.93 7.81 1018.93 5.99 1021.15 C4.08 1021.52 4.08 1021.52 1.93 1021.71 C-1.78 1021.7 -1.78 1021.7 -3.01 1023.15 C-3.22 1025.98 -3.39 1028.8 -3.51 1031.65 C-3.87 1040.01 -3.87 1040.01 -5.01 1041.15 C-5.3 1044.18 -5.46 1047.22 -5.63 1050.26 C-6.01 1053.15 -6.01 1053.15 -8.01 1056.15 C-8.28 1058.51 -8.46 1060.89 -8.57 1063.27 C-8.91 1070.05 -8.91 1070.05 -10.01 1071.15 C-10.14 1073.91 -10.19 1076.63 -10.2 1079.4 C-10.21 1080.16 -10.22 1080.92 -10.23 1081.71 C-10.25 1086.01 -9.92 1089.21 -8.01 1093.15 C-7.87 1093.87 -7.72 1094.59 -7.57 1095.33 C-7.09 1097.54 -7.09 1097.54 -4.01 1099.15 C-3.54 1100.14 -3.06 1101.13 -2.57 1102.15 C-0.95 1105.25 -0.23 1106.03 2.99 1107.15 C2.99 1107.81 2.99 1108.47 2.99 1109.15 C3.63 1109.37 4.27 1109.6 4.93 1109.83 C7.53 1110.95 9.66 1112.17 12.05 1113.65 C21.24 1118.86 31.82 1118.72 41.99 1117.15 C43.45 1116.98 44.91 1116.81 46.37 1116.65 C49.79 1116.54 49.79 1116.54 50.99 1115.15 C53.02 1114.92 55.05 1114.7 57.08 1114.52 C59.22 1114.28 59.22 1114.28 60.99 1112.15 C65.46 1110.6 69.27 1109.92 73.99 1110.15 C73.99 1109.49 73.99 1108.83 73.99 1108.15 C75.02 1107.88 76.05 1107.61 77.12 1107.33 C79.71 1106.61 81.63 1105.81 84.05 1104.52 C87.3 1103 89.45 1102.89 92.99 1103.15 C92.99 1102.49 92.99 1101.83 92.99 1101.15 C93.9 1100.9 94.8 1100.66 95.74 1100.41 C102.06 1098.67 108.1 1096.82 114.04 1094.02 C118.29 1092.1 122.57 1091.15 127.18 1090.65 C130.78 1090.4 130.78 1090.4 132.88 1089.15 C135.49 1087.91 137.67 1087.77 140.55 1087.58 C143.66 1087.38 146.02 1087.13 148.99 1086.15 C166.36 1085.01 183.64 1085.77 199.99 1092.15 C201.08 1092.54 201.08 1092.54 202.19 1092.94 C207.74 1095.04 213.05 1097.57 218.37 1100.21 C219.4 1100.72 219.4 1100.72 220.46 1101.24 C226.13 1104.09 230.59 1107.62 235.31 1111.84 C237.07 1113.36 237.07 1113.36 239.99 1114.15 C239.99 1114.81 239.99 1115.47 239.99 1116.15 C240.89 1116.3 240.89 1116.3 241.81 1116.45 C244.43 1117.29 245.12 1118.13 246.8 1120.27 C250.51 1124.72 254.52 1128.8 258.62 1132.9 C259.26 1133.55 259.91 1134.19 260.57 1134.86 C263.27 1137.55 265.92 1140.09 268.91 1142.46 C271.25 1144.36 271.49 1145.26 271.99 1148.15 C272.65 1148.48 273.31 1148.81 273.99 1149.15 C278.99 1154.5 278.99 1154.5 278.99 1159.15 C279.89 1159.55 279.89 1159.55 280.8 1159.96 C284.98 1162.22 286.66 1165.16 288.95 1169.3 C290.97 1172.87 293.09 1176.24 295.99 1179.15 C295.99 1180.47 295.99 1181.79 295.99 1183.15 C296.65 1183.15 297.31 1183.15 297.99 1183.15 C296.44 1187.81 295.24 1188.73 290.99 1191.15 C290.1 1191.7 289.22 1192.26 288.3 1192.83 C285.99 1194.15 285.99 1194.15 283.99 1194.15 C283.76 1194.76 283.54 1195.38 283.3 1196.02 C281.55 1198.86 280.18 1199.27 276.99 1200.15 C273.99 1200.71 273.99 1200.71 270.99 1200.15 C268.91 1198.06 267.47 1195.68 265.99 1193.15 C265.19 1191.85 265.19 1191.85 264.37 1190.52 C263.45 1188.95 262.56 1187.36 261.68 1185.77 C259.81 1182.87 257.67 1180.42 255.4 1177.84 C253.99 1176.15 253.99 1176.15 252.43 1173.52 C250.99 1170.93 250.99 1170.93 248.3 1168.46 C247.16 1167.31 247.16 1167.31 245.99 1166.15 C245.99 1165.49 245.99 1164.83 245.99 1164.15 C245.33 1164.15 244.67 1164.15 243.99 1164.15 C243.75 1163.42 243.52 1162.69 243.27 1161.95 C241.79 1158.71 240.03 1156.82 237.49 1154.33 C236.7 1153.54 235.9 1152.75 235.08 1151.94 C233.2 1149.93 233.2 1149.93 230.99 1150.15 C229.96 1148.49 228.97 1146.83 227.99 1145.15 C226.16 1142.88 224.79 1142.05 222.12 1140.77 C218.7 1138.99 216.67 1136.89 213.99 1134.15 C210.8 1131.99 207.6 1130.48 203.99 1129.15 C203.99 1128.49 203.99 1127.83 203.99 1127.15 C202.85 1126.86 202.85 1126.86 201.69 1126.56 C200.7 1126.3 199.7 1126.04 198.68 1125.77 C197.69 1125.52 196.71 1125.26 195.69 1125 C192.99 1124.15 192.99 1124.15 189.99 1122.15 C184.76 1120.29 179.78 1119.76 174.25 1119.39 C171.99 1119.15 171.99 1119.15 170.99 1118.15 C168.15 1118.05 165.33 1118.01 162.49 1118.02 C161.69 1118.02 160.89 1118.01 160.07 1118.01 C156.22 1117.64 156.22 1117.64 152.99 1119.15 C150.25 1119.43 147.5 1119.59 144.75 1119.77 C142.03 1120.14 140.39 1120.89 137.99 1122.15 C135.99 1122.15 133.99 1122.15 131.99 1122.15 C131.33 1122.81 130.67 1123.47 129.99 1124.15 C126.92 1124.81 123.86 1125.35 120.75 1125.82 C115.96 1126.66 112.9 1128.33 108.99 1131.15 C104.5 1132.64 99.76 1134.15 94.99 1134.15 C94.99 1134.81 94.99 1135.47 94.99 1136.15 C93.94 1136.43 92.89 1136.72 91.8 1137.02 C88.15 1138.03 88.15 1138.03 85.37 1139.21 C82.28 1140.43 79.32 1141.15 75.99 1141.15 C75.99 1141.81 75.99 1142.47 75.99 1143.15 C74.9 1143.45 73.8 1143.76 72.68 1144.08 C70.44 1144.73 68.2 1145.41 65.99 1146.15 C64.98 1146.12 63.97 1146.1 62.93 1146.08 C59.87 1145.81 59.87 1145.81 57.99 1148.15 C55.21 1148.52 55.21 1148.52 51.93 1148.71 C48.14 1148.6 48.14 1148.6 44.99 1150.15 C43.22 1150.24 41.45 1150.28 39.68 1150.28 C38.6 1150.28 37.53 1150.28 36.42 1150.28 C35.29 1150.28 34.16 1150.27 32.99 1150.27 C31.86 1150.27 30.73 1150.28 29.56 1150.28 C27.95 1150.28 27.95 1150.28 26.3 1150.28 C25.31 1150.28 24.32 1150.28 23.29 1150.27 C20.99 1150.15 20.99 1150.15 19.99 1149.15 C17.74 1148.86 15.48 1148.7 13.22 1148.52 C10.99 1148.15 10.99 1148.15 7.99 1146.15 C6.47 1145.74 6.47 1145.74 4.93 1145.33 C-5.67 1142.45 -14.54 1136.02 -22.01 1128.15 C-23.31 1126.91 -23.31 1126.91 -24.63 1125.65 C-26.91 1123.25 -28.34 1120.97 -30.01 1118.15 C-30.97 1117.31 -30.97 1117.31 -31.95 1116.46 C-35.15 1112.87 -36.41 1108.63 -38.01 1104.15 C-38.3 1103.35 -38.59 1102.56 -38.89 1101.74 C-41.78 1093.55 -42.17 1085.71 -42.13 1077.08 C-42.14 1076.12 -42.14 1075.15 -42.15 1074.15 C-42.14 1069.36 -41.95 1064.86 -41.01 1060.15 C-40.85 1058.63 -40.71 1057.1 -40.57 1055.58 C-40.3 1052.99 -40 1051.13 -39.01 1048.71 C-37.74 1045.46 -37.58 1042.41 -37.35 1038.94 C-36.9 1035.23 -35.96 1031.75 -35.01 1028.15 C-35.59 1028.16 -36.17 1028.17 -36.77 1028.18 C-39.41 1028.22 -42.05 1028.24 -44.7 1028.27 C-45.61 1028.29 -46.52 1028.3 -47.46 1028.32 C-56.17 1028.38 -56.17 1028.38 -60.01 1026.15 C-60.34 1025.49 -60.67 1024.83 -61.01 1024.15 C-61.81 1023.86 -62.62 1023.57 -63.45 1023.27 C-66.01 1022.15 -66.01 1022.15 -67.32 1020.02 C-67.55 1019.4 -67.78 1018.78 -68.01 1018.15 C-68.67 1018.15 -69.33 1018.15 -70.01 1018.15 C-71 1015.18 -71.99 1012.21 -73.01 1009.15 C-73.67 1009.15 -74.33 1009.15 -75.01 1009.15 C-76.74 1000.69 -76.52 994.5 -73.03 986.59 C-71.6 983.17 -70.81 979.76 -70.01 976.15 C-69.35 976.15 -68.69 976.15 -68.01 976.15 C-67.87 975.42 -67.72 974.7 -67.57 973.96 C-67.39 973.03 -67.2 972.1 -67.01 971.15 C-66.87 970.3 -66.72 969.45 -66.57 968.58 C-65.72 964.89 -64.11 962.29 -62.01 959.15 C-61.33 956.82 -60.66 954.48 -60.01 952.15 C-59.48 950.7 -58.94 949.27 -58.38 947.83 C-56.89 944.49 -56.89 944.49 -57.01 942.15 C-57.81 942.21 -58.62 942.27 -59.45 942.33 C-63.99 942.09 -67.78 940.72 -72.01 939.15 C-72.01 938.49 -72.01 937.83 -72.01 937.15 C-72.74 937.07 -73.47 936.99 -74.22 936.91 C-77.69 935.96 -79.1 934.53 -81.57 931.96 C-82.36 931.15 -83.15 930.34 -83.96 929.51 C-86.01 927.15 -86.01 927.15 -87.88 923.65 C-90.55 920.51 -91.7 920.68 -95.7 920.33 C-96.67 920.31 -97.64 920.28 -98.65 920.25 C-101.01 920.15 -101.01 920.15 -102.01 919.15 C-105.57 918.86 -109.12 918.7 -112.69 918.52 C-116.01 918.15 -116.01 918.15 -119.01 916.15 C-121.72 915.72 -121.72 915.72 -124.63 915.58 C-129.91 915.24 -129.91 915.24 -131.01 914.15 C-133.85 913.86 -136.69 913.7 -139.54 913.52 C-140.36 913.4 -141.17 913.27 -142.01 913.15 C-142.34 912.49 -142.67 911.83 -143.01 911.15 C-143.62 911.17 -144.24 911.19 -144.87 911.22 C-146.09 911.24 -146.09 911.24 -147.32 911.27 C-148.12 911.29 -148.92 911.32 -149.75 911.34 C-152.01 911.15 -152.01 911.15 -155.01 909.15 C-156.9 908.64 -156.9 908.64 -158.95 908.36 C-160.07 908.18 -160.07 908.18 -161.22 908 C-162.79 907.76 -164.36 907.53 -165.94 907.29 C-171.81 906.35 -171.81 906.35 -174.01 904.15 C-176.23 903.54 -176.23 903.54 -178.76 903.15 C-188.87 901.29 -188.87 901.29 -191.01 899.15 C-192.22 899.24 -192.22 899.24 -193.45 899.33 C-197.68 899.11 -200.69 897.8 -204.56 896.16 C-207.64 894.88 -210.8 894.04 -214.01 893.15 C-215.99 892.44 -217.96 891.69 -219.92 890.93 C-223.54 889.57 -227.22 888.4 -230.9 887.22 C-236.37 885.44 -241.59 883.5 -246.8 881.08 C-249.17 880.08 -251.53 879.35 -254.01 878.65 C-258.14 877.47 -261.93 875.93 -265.83 874.13 C-269.16 872.63 -272.57 871.39 -276.01 870.15 C-276.01 869.49 -276.01 868.83 -276.01 868.15 C-277.06 868.02 -278.11 867.9 -279.2 867.77 C-282.47 867.23 -285.02 866.51 -288.01 865.15 C-288.01 864.49 -288.01 863.83 -288.01 863.15 C-288.97 863.02 -288.97 863.02 -289.95 862.9 C-294.22 861.85 -298.04 860 -302.01 858.15 C-302.01 857.49 -302.01 856.83 -302.01 856.15 C-303.19 856.06 -304.36 855.98 -305.57 855.9 C-309.23 855.43 -311.82 854.37 -314.96 852.38 C-317.57 850.81 -320.27 849.49 -323.01 848.15 C-327.44 845.95 -331.75 843.66 -336.01 841.15 C-336.01 840.49 -336.01 839.83 -336.01 839.15 C-336.97 839.02 -336.97 839.02 -337.95 838.9 C-342.22 837.85 -346.04 836 -350.01 834.15 C-350.01 833.49 -350.01 832.83 -350.01 832.15 C-350.6 831.98 -351.19 831.8 -351.8 831.63 C-356.76 830.11 -359.99 828.48 -364.01 825.15 C-367.29 823.37 -370.64 821.74 -374.01 820.15 C-374.01 819.49 -374.01 818.83 -374.01 818.15 C-375.66 817.82 -377.31 817.49 -379.01 817.15 C-379.01 816.49 -379.01 815.83 -379.01 815.15 C-379.77 815.04 -380.54 814.94 -381.32 814.83 C-384.28 814.08 -384.97 813.28 -387.01 811.15 C-388.34 810.78 -389.67 810.45 -391.01 810.15 C-391.67 809.49 -392.33 808.83 -393.01 808.15 C-393.88 807.65 -394.74 807.16 -395.63 806.65 C-396.81 805.9 -396.81 805.9 -398.01 805.15 C-398.01 804.49 -398.01 803.83 -398.01 803.15 C-398.72 803.06 -399.43 802.98 -400.17 802.89 C-403.63 801.98 -405.67 800.44 -408.51 798.27 C-411.92 795.67 -415.32 793.32 -419.01 791.15 C-420.68 789.82 -422.35 788.49 -424.01 787.15 C-427.16 784.8 -430.3 782.56 -433.7 780.58 C-436.19 779.03 -437.94 777.22 -440.01 775.15 C-441.15 774.5 -441.15 774.5 -442.32 773.83 C-444.85 772.25 -446.47 770.72 -448.51 768.58 C-451.23 765.76 -453.32 764.5 -457.01 763.15 C-458.68 761.48 -460.34 759.81 -462.01 758.15 C-463.98 756.61 -465.99 755.11 -468.01 753.65 C-472.04 750.73 -475.51 747.68 -479.01 744.15 C-480.62 742.85 -482.24 741.58 -483.88 740.33 C-487.88 737.19 -491.13 733.91 -494.37 730.01 C-496.46 727.64 -498.8 725.73 -501.24 723.72 C-503.91 721.34 -506.15 718.63 -508.43 715.88 C-510.09 713.92 -510.09 713.92 -513.01 712.15 C-513.01 711.49 -513.01 710.83 -513.01 710.15 C-513.67 710.15 -514.33 710.15 -515.01 710.15 C-516.42 708.68 -516.42 708.68 -518.07 706.65 C-520.71 703.54 -523.42 700.8 -526.51 698.15 C-530.19 694.96 -533.38 691.6 -536.51 687.89 C-538.08 686.02 -538.08 686.02 -540.26 683.96 C-542.01 682.15 -542.01 682.15 -543.33 679.82 C-545.13 676.95 -547.12 674.91 -549.57 672.58 C-552.44 669.86 -554.28 667.67 -556.01 664.15 C-557 663.49 -557.99 662.83 -559.01 662.15 C-560.56 659.79 -561.87 657.44 -563.07 654.9 C-563.89 652.96 -563.89 652.96 -566.01 652.15 C-574.01 643.12 -574.01 643.12 -574.01 639.15 C-574.67 639.15 -575.33 639.15 -576.01 639.15 C-576.41 638.39 -576.81 637.63 -577.22 636.84 C-577.75 635.85 -578.28 634.86 -578.82 633.83 C-579.34 632.85 -579.87 631.86 -580.4 630.84 C-581.84 628.17 -581.84 628.17 -583.71 626.48 C-585.01 625.15 -585.01 625.15 -585.01 622.15 C-586 621.82 -586.99 621.49 -588.01 621.15 C-589.26 619.29 -589.26 619.29 -590.45 616.96 C-591.94 614.1 -593.46 611.4 -595.32 608.77 C-597.01 606.15 -597.01 606.15 -597.01 603.15 C-597.67 603.15 -598.33 603.15 -599.01 603.15 C-610.01 582.88 -610.01 582.88 -610.01 580.15 C-610.67 580.15 -611.33 580.15 -612.01 580.15 C-615.72 572.91 -619.27 565.81 -622.01 558.15 C-622.72 556.72 -622.72 556.72 -623.45 555.27 C-629.01 544.15 -629.01 544.15 -629.01 539.15 C-630 538.82 -630.99 538.49 -632.01 538.15 C-632.58 535.4 -633.07 532.68 -633.45 529.9 C-633.73 528.53 -633.73 528.53 -634.01 527.15 C-634.67 526.82 -635.33 526.49 -636.01 526.15 C-638.36 522.11 -639.27 518.7 -640.01 514.15 C-640.7 512.53 -641.39 510.92 -642.12 509.33 C-643.69 505.46 -644.78 501.43 -645.95 497.43 C-646.97 494.08 -646.97 494.08 -648.51 490.75 C-650.12 486.87 -651.14 483.1 -652.07 479.02 C-653.28 473.72 -653.28 473.72 -655.07 468.59 C-656.27 465.47 -656.57 462.47 -657.01 459.15 C-657.61 455.97 -658.28 452.81 -658.95 449.65 C-659.12 448.83 -659.29 448.01 -659.46 447.17 C-660.23 443.55 -661.05 440.02 -662.1 436.47 C-663.03 433.07 -663.38 429.98 -663.57 426.46 C-663.77 422.29 -663.77 422.29 -664.52 418.22 C-665.03 416.07 -665.12 414.23 -665.11 412.04 C-665.1 411.28 -665.1 410.53 -665.1 409.75 C-665.09 408.97 -665.08 408.2 -665.07 407.4 C-665.07 406.6 -665.06 405.81 -665.06 404.99 C-665.05 403.04 -665.03 401.09 -665.01 399.15 C-665.67 399.15 -666.33 399.15 -667.01 399.15 C-666.89 393.94 -666.76 388.73 -666.64 383.53 C-666.59 381.76 -666.55 380 -666.51 378.24 C-666.29 368.71 -666.01 359.19 -665.54 349.66 C-665.5 348.88 -665.46 348.1 -665.42 347.29 C-665.22 343.48 -664.87 339.86 -664.01 336.15 C-663.66 334.24 -663.31 332.33 -662.96 330.42 C-661.04 319.98 -661.04 319.98 -659.88 315.58 C-658.93 312.15 -658.93 312.15 -658.57 308.58 C-657.93 304.64 -656.68 301.77 -655.01 298.15 C-653.47 293.54 -652.14 288.87 -651.01 284.15 C-650.35 284.15 -649.69 284.15 -649.01 284.15 C-648.68 281.51 -648.35 278.87 -648.01 276.15 C-647.35 276.15 -646.69 276.15 -646.01 276.15 C-645.89 275.43 -645.77 274.72 -645.64 273.99 C-645.48 273.07 -645.31 272.15 -645.13 271.21 C-644.97 270.29 -644.81 269.37 -644.64 268.43 C-644.43 267.68 -644.22 266.92 -644.01 266.15 C-643.35 265.82 -642.69 265.49 -642.01 265.15 C-641.18 263.33 -641.18 263.33 -640.51 261.21 C-639.59 258.44 -639.12 257.25 -637.01 255.15 C-636.68 254.16 -636.35 253.17 -636.01 252.15 C-635.35 252.15 -634.69 252.15 -634.01 252.15 C-633.89 251.59 -633.76 251.03 -633.63 250.46 C-632.36 245.74 -630.25 241.59 -627.88 237.33 C-627.35 236.36 -626.81 235.38 -626.25 234.38 C-625.84 233.64 -625.43 232.9 -625.01 232.15 C-624.02 232.48 -623.03 232.81 -622.01 233.15 C-621.91 232.38 -621.8 231.62 -621.7 230.83 C-620.92 227.8 -620.21 227.26 -618.01 225.15 C-617.34 223.97 -616.7 222.78 -616.07 221.58 C-614.41 218.51 -613.15 217.66 -610.01 216.15 C-609.88 215.38 -609.75 214.62 -609.62 213.84 C-608.89 210.6 -607.81 209.46 -605.47 207.14 C-604.72 206.39 -603.98 205.64 -603.21 204.86 C-602.39 204.07 -601.58 203.27 -600.74 202.45 C-599.91 201.62 -599.08 200.79 -598.22 199.94 C-596.46 198.19 -594.69 196.44 -592.92 194.7 C-590.21 192.03 -587.51 189.35 -584.82 186.67 C-583.11 184.97 -581.39 183.27 -579.68 181.57 C-578.87 180.77 -578.06 179.97 -577.23 179.15 C-576.47 178.41 -575.72 177.66 -574.94 176.89 C-573.94 175.91 -573.94 175.91 -572.93 174.92 C-567.76 170.15 -567.76 170.15 -564.01 170.15 C-563.65 169.25 -563.65 169.25 -563.28 168.33 C-561.74 165.69 -560.23 164.73 -557.63 163.15 C-554.96 161.46 -552.91 160.05 -550.7 157.77 C-549.01 156.15 -549.01 156.15 -545.01 156.15 C-545.01 155.49 -545.01 154.83 -545.01 154.15 C-542.86 152.71 -542.86 152.71 -540.07 151.15 C-536.39 149.28 -536.39 149.28 -534.01 146.15 C-530.98 144.26 -529.76 144.15 -526.01 144.15 C-526.01 143.49 -526.01 142.83 -526.01 142.15 C-520.94 138.22 -515.26 135.53 -509.01 134.15 C-509.01 133.49 -509.01 132.83 -509.01 132.15 C-508 132.06 -506.99 131.98 -505.95 131.9 C-502.44 131.41 -500.1 130.06 -497.08 128.19 C-493.58 126.43 -489.83 125.74 -486.03 124.88 C-482.5 124.02 -479.15 122.87 -475.75 121.6 C-474.01 121.15 -474.01 121.15 -472.01 122.15 C-472.01 121.49 -472.01 120.83 -472.01 120.15 C-471.3 120.1 -470.59 120.05 -469.86 120 C-468.48 119.88 -468.48 119.88 -467.07 119.77 C-466.16 119.7 -465.24 119.63 -464.29 119.56 C-463.54 119.42 -462.79 119.29 -462.01 119.15 C-461.68 118.49 -461.35 117.83 -461.01 117.15 C-459.09 117.21 -457.17 117.28 -455.25 117.34 C-452.94 117.26 -452.94 117.26 -450.71 116.15 C-447.78 115.06 -445.62 114.89 -442.5 114.89 C-441.43 114.88 -440.35 114.87 -439.24 114.87 C-438.08 114.87 -436.93 114.88 -435.74 114.88 C-434.54 114.88 -433.34 114.88 -432.11 114.87 C-429.58 114.87 -427.05 114.88 -424.52 114.88 C-420.66 114.9 -416.79 114.88 -412.93 114.87 C-410.47 114.87 -408.01 114.88 -405.55 114.88 C-404.4 114.88 -403.25 114.87 -402.06 114.87 C-396.27 114.9 -391.48 115.28 -386.01 117.15 C-384.39 117.45 -382.76 117.71 -381.12 117.93 C-379.82 118.1 -379.82 118.1 -378.49 118.29 C-377.59 118.4 -376.69 118.52 -375.76 118.65 C-373.88 118.9 -372 119.16 -370.12 119.43 C-369.23 119.55 -368.34 119.67 -367.43 119.8 C-356.13 121.41 -345.14 124.1 -334.24 127.47 C-332.34 128.04 -330.43 128.57 -328.51 129.08 C-324.74 130.23 -321.17 131.66 -317.53 133.15 C-312.57 135.11 -307.47 136.68 -302.39 138.3 C-301.08 138.73 -299.76 139.16 -298.45 139.58 C-297.23 139.97 -296.01 140.36 -294.76 140.77 C-291.38 142.01 -288.32 143.45 -285.14 145.09 C-280.48 147.4 -275.62 149.27 -270.81 151.23 C-266.66 152.95 -262.84 154.76 -259.01 157.15 C-256.43 158.48 -253.81 159.74 -251.2 161.02 C-246.79 163.19 -242.46 165.36 -238.32 168.02 C-235.55 169.8 -233.1 171.06 -230.01 172.15 C-229.35 172.48 -228.69 172.81 -228.01 173.15 C-228.01 173.81 -228.01 174.47 -228.01 175.15 C-225.36 176.22 -222.73 177.24 -220.01 178.15 C-220.01 178.81 -220.01 179.47 -220.01 180.15 C-219.02 180.15 -218.03 180.15 -217.01 180.15 C-216.84 179.61 -216.67 179.08 -216.49 178.53 C-213.79 170.21 -210.5 162.16 -207.01 154.15 C-206.35 154.15 -205.69 154.15 -205.01 154.15 C-204.91 153.42 -204.8 152.7 -204.7 151.96 C-203.94 148.85 -202.66 146.87 -201.01 144.15 C-200.53 142.88 -200.07 141.61 -199.63 140.33 C-198.06 135.94 -195.95 131.79 -193.01 128.15 C-192.35 128.15 -191.69 128.15 -191.01 128.15 C-190.93 127.46 -190.84 126.78 -190.76 126.08 C-189.77 122.22 -188.15 119.51 -186.01 116.15 C-185.35 115.82 -184.69 115.49 -184.01 115.15 C-183.74 114.42 -183.47 113.7 -183.2 112.96 C-181.72 109.47 -179.49 106.94 -177.01 104.15 C-174.32 101.06 -171.91 98.11 -169.95 94.52 C-168.2 91.48 -166.69 89.38 -164.01 87.15 C-163.35 87.15 -162.69 87.15 -162.01 87.15 C-161.96 86.12 -161.96 86.12 -161.9 85.07 C-160.59 80.79 -157.85 78.42 -154.71 75.31 C-154.08 74.68 -153.44 74.04 -152.79 73.38 C-151.45 72.04 -150.11 70.71 -148.76 69.38 C-146.7 67.34 -144.66 65.27 -142.62 63.21 C-141.32 61.91 -140.01 60.61 -138.71 59.31 C-138.1 58.69 -137.49 58.08 -136.86 57.44 C-136.28 56.87 -135.7 56.31 -135.11 55.73 C-134.61 55.23 -134.1 54.73 -133.59 54.21 C-132.01 53.15 -132.01 53.15 -128.01 53.15 C-127.78 52.57 -127.56 51.99 -127.32 51.4 C-125.34 48 -122.5 45.89 -119.01 44.15 C-118.18 43.46 -117.36 42.78 -116.51 42.08 C-114.01 40.15 -114.01 40.15 -112.01 40.15 C-111.27 39.38 -110.52 38.62 -109.76 37.83 C-106.94 35.08 -104.56 33.77 -101.01 32.15 C-100.14 31.59 -99.28 31.03 -98.38 30.46 C-96.01 29.15 -96.01 29.15 -92.01 29.15 C-91.68 28.16 -91.35 27.17 -91.01 26.15 C-88.71 25.06 -86.37 24.07 -84.01 23.15 C-81.98 22.17 -79.99 21.14 -78.01 20.07 C-77.35 19.73 -76.69 19.38 -76.01 19.02 C-75.35 18.67 -74.69 18.31 -74.01 17.95 C-72.01 17.15 -72.01 17.15 -68.01 17.15 C-68.01 16.49 -68.01 15.83 -68.01 15.15 C-62 13.04 -56.01 11.34 -49.81 9.89 C-47 9.2 -47 9.2 -44.38 8.09 C-41.32 6.87 -38.27 6.58 -35.01 6.15 C-34.68 5.82 -34.35 5.49 -34.01 5.15 C-31.04 4.86 -28.07 4.7 -25.09 4.52 C-22.04 4.28 -22.04 4.28 -19.51 3.15 C-16.53 1.95 -13.96 1.77 -10.76 1.58 C-6.67 1.34 -3.93 0.02 0 0 Z M12.99 916.15 C12.33 917.47 11.67 918.79 10.99 920.15 C11.98 920.15 12.97 920.15 13.99 920.15 C14.65 918.83 15.31 917.51 15.99 916.15 C15 916.15 14.01 916.15 12.99 916.15 Z M7.99 921.15 C8.32 922.14 8.65 923.13 8.99 924.15 C9.65 923.49 10.31 922.83 10.99 922.15 C10 921.82 9.01 921.49 7.99 921.15 Z M286.99 1189.15 C287.32 1190.14 287.65 1191.13 287.99 1192.15 C288.65 1191.82 289.31 1191.49 289.99 1191.15 C289.99 1190.49 289.99 1189.83 289.99 1189.15 C289 1189.15 288.01 1189.15 286.99 1189.15 Z " fill="#EF483C" transform="translate(734.009765625,39.854736328125)"/>
<path d="M0 0 C0.33 0 0.66 0 1 0 C1 16.83 1 33.66 1 51 C0.67 51 0.34 51 0 51 C0 34.17 0 17.34 0 0 Z " fill="#000000" transform="translate(1047,371)"/>
<path d="M0 0 C0.33 0 0.66 0 1 0 C1 10.56 1 21.12 1 32 C0.67 32 0.34 32 0 32 C0 21.44 0 10.88 0 0 Z " fill="#F0493D" transform="translate(66,402)"/>
<path d="M0 0 C0.33 0 0.66 0 1 0 C1 4.29 1 8.58 1 13 C0.67 13 0.34 13 0 13 C0 8.71 0 4.42 0 0 Z " fill="#000000" transform="translate(1045,433)"/>
<path d="M0 0 C0.33 0 0.66 0 1 0 C1 3.3 1 6.6 1 10 C0.67 10 0.34 10 0 10 C0 6.7 0 3.4 0 0 Z " fill="#000000" transform="translate(731,1063)"/>
<path d="M0 0 C0.33 0 0.66 0 1 0 C1 3.3 1 6.6 1 10 C0.67 10 0.34 10 0 10 C0 6.7 0 3.4 0 0 Z " fill="#000000" transform="translate(1045,348)"/>
<path d="M0 0 C2.64 0 5.28 0 8 0 C8 0.33 8 0.66 8 1 C5.36 1 2.72 1 0 1 C0 0.67 0 0.34 0 0 Z " fill="#000000" transform="translate(763,1191)"/>
<path d="M0 0 C0.33 0 0.66 0 1 0 C1 2.64 1 5.28 1 8 C0.67 8 0.34 8 0 8 C0 5.36 0 2.72 0 0 Z " fill="#000000" transform="translate(726,1096)"/>
<path d="M0 0 C2.64 0 5.28 0 8 0 C8 0.33 8 0.66 8 1 C5.36 1 2.72 1 0 1 C0 0.67 0 0.34 0 0 Z " fill="#000000" transform="translate(742,1059)"/>
<path d="M0 0 C2.64 0 5.28 0 8 0 C8 0.33 8 0.66 8 1 C5.36 1 2.72 1 0 1 C0 0.67 0 0.34 0 0 Z " fill="#000000" transform="translate(607,956)"/>
<path d="M0 0 C0.33 0 0.66 0 1 0 C1 2.64 1 5.28 1 8 C0.67 8 0.34 8 0 8 C0 5.36 0 2.72 0 0 Z " fill="#000000" transform="translate(757,939)"/>
<path d="M0 0 C2.31 0 4.62 0 7 0 C7 0.33 7 0.66 7 1 C4.69 1 2.38 1 0 1 C0 0.67 0 0.34 0 0 Z " fill="#000000" transform="translate(584,951)"/>
<path d="M0 0 C0.33 0 0.66 0 1 0 C1 1.98 1 3.96 1 6 C0.67 6 0.34 6 0 6 C0 4.02 0 2.04 0 0 Z " fill="#000000" transform="translate(1040,476)"/>
<path d="M0 0 C1.65 0 3.3 0 5 0 C5 0.33 5 0.66 5 1 C3.35 1 1.7 1 0 1 C0 0.67 0 0.34 0 0 Z " fill="#000000" transform="translate(780,1189)"/>
<path d="M0 0 C1.65 0 3.3 0 5 0 C5 0.33 5 0.66 5 1 C3.35 1 1.7 1 0 1 C0 0.67 0 0.34 0 0 Z " fill="#000000" transform="translate(794,1186)"/>
<path d="M0 0 C1.65 0 3.3 0 5 0 C5 0.33 5 0.66 5 1 C3.35 1 1.7 1 0 1 C0 0.67 0 0.34 0 0 Z " fill="#000000" transform="translate(849,1167)"/>
<path d="M0 0 C1.65 0 3.3 0 5 0 C5 0.33 5 0.66 5 1 C3.35 1 1.7 1 0 1 C0 0.67 0 0.34 0 0 Z " fill="#000000" transform="translate(866,1162)"/>
<path d="M0 0 C1.65 0 3.3 0 5 0 C5 0.33 5 0.66 5 1 C3.35 1 1.7 1 0 1 C0 0.67 0 0.34 0 0 Z " fill="#000000" transform="translate(598,954)"/>
<path d="M0 0 C1.65 0 3.3 0 5 0 C5 0.33 5 0.66 5 1 C3.35 1 1.7 1 0 1 C0 0.67 0 0.34 0 0 Z " fill="#000000" transform="translate(555,944)"/>
<path d="M0 0 C1.65 0 3.3 0 5 0 C5 0.33 5 0.66 5 1 C3.35 1 1.7 1 0 1 C0 0.67 0 0.34 0 0 Z " fill="#000000" transform="translate(538,939)"/>
<path d="M0 0 C0.33 0 0.66 0 1 0 C1 1.65 1 3.3 1 5 C0.67 5 0.34 5 0 5 C0 3.35 0 1.7 0 0 Z " fill="#000000" transform="translate(1028,531)"/>
<path d="M0 0 C0.33 0 0.66 0 1 0 C1 1.65 1 3.3 1 5 C0.67 5 0.34 5 0 5 C0 3.35 0 1.7 0 0 Z " fill="#000000" transform="translate(1035,502)"/>
<path d="M0 0 C0.33 0 0.66 0 1 0 C1 1.65 1 3.3 1 5 C0.67 5 0.34 5 0 5 C0 3.35 0 1.7 0 0 Z " fill="#000000" transform="translate(1040,315)"/>
<path d="M0 0 C4 1 4 1 4 1 Z " fill="#000000" transform="translate(1006,1241)"/>
<path d="M0 0 C4 1 4 1 4 1 Z " fill="#000000" transform="translate(876,1160)"/>
<path d="M0 0 C1 4 1 4 1 4 Z " fill="#000000" transform="translate(724,1124)"/>
<path d="M0 0 C1 4 1 4 1 4 Z " fill="#000000" transform="translate(724,1111)"/>
<path d="M0 0 C4 1 4 1 4 1 Z " fill="#000000" transform="translate(575,949)"/>
<path d="M0 0 C1 4 1 4 1 4 Z " fill="#000000" transform="translate(1033,512)"/>
<path d="M0 0 C1 4 1 4 1 4 Z " fill="#000000" transform="translate(1033,285)"/>
<path d="M0 0 C3 1 3 1 3 1 Z " fill="#000000" transform="translate(751,1189)"/>
<path d="M0 0 C3 1 3 1 3 1 Z " fill="#000000" transform="translate(914,1160)"/>
<path d="M0 0 C3 1 3 1 3 1 Z " fill="#000000" transform="translate(664,980)"/>
<path d="M0 0 C3 1 3 1 3 1 Z " fill="#000000" transform="translate(516,932)"/>
<path d="" fill="#000000" transform="translate(0,0)"/>
<path d="" fill="#000000" transform="translate(0,0)"/>
<path d="" fill="#000000" transform="translate(0,0)"/>
<path d="" fill="#000000" transform="translate(0,0)"/>
<path d="M0 0 C2 1 2 1 2 1 Z " fill="#000000" transform="translate(1027,1229)"/>
<path d="M0 0 C2 1 2 1 2 1 Z " fill="#000000" transform="translate(740,1186)"/>
<path d="M0 0 C2 1 2 1 2 1 Z " fill="#000000" transform="translate(804,1184)"/>
<path d="M0 0 C2 1 2 1 2 1 Z " fill="#000000" transform="translate(818,1179)"/>
<path d="M0 0 C2 1 2 1 2 1 Z " fill="#000000" transform="translate(823,1177)"/>
<path d="M0 0 C2 1 2 1 2 1 Z " fill="#000000" transform="translate(831,1174)"/>
<path d="M0 0 C2 1 2 1 2 1 Z " fill="#000000" transform="translate(922,1162)"/>
<path d="M0 0 C2 1 2 1 2 1 Z " fill="#000000" transform="translate(754,1057)"/>
<path d="" fill="#000000" transform="translate(0,0)"/>
<path d="" fill="#000000" transform="translate(0,0)"/>
<path d="" fill="#000000" transform="translate(0,0)"/>
<path d="M0 0 C2 1 2 1 2 1 Z " fill="#000000" transform="translate(502,927)"/>
<path d="M0 0 C2 1 2 1 2 1 Z " fill="#000000" transform="translate(496,925)"/>
<path d="M0 0 C2 1 2 1 2 1 Z " fill="#000000" transform="translate(483,920)"/>
<path d="M0 0 C2 1 2 1 2 1 Z " fill="#000000" transform="translate(454,908)"/>
<path d="M0 0 C2 1 2 1 2 1 Z " fill="#000000" transform="translate(438,901)"/>
<path d="M0 0 C2 1 2 1 2 1 Z " fill="#000000" transform="translate(428,896)"/>
<path d="M0 0 C2 1 2 1 2 1 Z " fill="#000000" transform="translate(390,877)"/>
<path d="M0 0 C2 1 2 1 2 1 Z " fill="#000000" transform="translate(280,805)"/>
<path d="" fill="#000000" transform="translate(0,0)"/>
<path d="" fill="#000000" transform="translate(0,0)"/>
<path d="" fill="#000000" transform="translate(0,0)"/>
<path d="" fill="#000000" transform="translate(0,0)"/>
<path d="" fill="#000000" transform="translate(0,0)"/>
<path d="" fill="#000000" transform="translate(0,0)"/>
<path d="" fill="#000000" transform="translate(0,0)"/>
<path d="" fill="#000000" transform="translate(0,0)"/>
<path d="" fill="#000000" transform="translate(0,0)"/>
<path d="" fill="#F0493D" transform="translate(0,0)"/>
<path d="" fill="#000000" transform="translate(0,0)"/>
<path d="" fill="#000000" transform="translate(0,0)"/>
<path d="" fill="#000000" transform="translate(0,0)"/>
<path d="" fill="#000000" transform="translate(0,0)"/>
<path d="" fill="#000000" transform="translate(0,0)"/>
<path d="" fill="#000000" transform="translate(0,0)"/>
<path d="" fill="#000000" transform="translate(0,0)"/>
<path d="" fill="#F0493D" transform="translate(0,0)"/>
<path d="" fill="#000000" transform="translate(0,0)"/>
<path d="" fill="#000000" transform="translate(0,0)"/>
<path d="" fill="#000000" transform="translate(0,0)"/>
<path d="" fill="#F0493D" transform="translate(0,0)"/>
<path d="" fill="#000000" transform="translate(0,0)"/>
<path d="" fill="#000000" transform="translate(0,0)"/>
<path d="" fill="#000000" transform="translate(0,0)"/>
<path d="" fill="#000000" transform="translate(0,0)"/>
<path d="" fill="#000000" transform="translate(0,0)"/>
<path d="" fill="#000000" transform="translate(0,0)"/>
<path d="" fill="#000000" transform="translate(0,0)"/>
<path d="" fill="#F0493D" transform="translate(0,0)"/>
<path d="" fill="#000000" transform="translate(0,0)"/>
<path d="" fill="#000000" transform="translate(0,0)"/>
<path d="" fill="#000000" transform="translate(0,0)"/>
<path d="" fill="#000000" transform="translate(0,0)"/>
<path d="" fill="#000000" transform="translate(0,0)"/>
<path d="" fill="#000000" transform="translate(0,0)"/>
<path d="" fill="#F0493D" transform="translate(0,0)"/>
<path d="" fill="#000000" transform="translate(0,0)"/>
<path d="" fill="#000000" transform="translate(0,0)"/>
<path d="" fill="#000000" transform="translate(0,0)"/>
<path d="" fill="#000000" transform="translate(0,0)"/>
<path d="" fill="#000000" transform="translate(0,0)"/>
<path d="" fill="#000000" transform="translate(0,0)"/>
<path d="" fill="#000000" transform="translate(0,0)"/>
<path d="" fill="#000000" transform="translate(0,0)"/>
<path d="" fill="#000000" transform="translate(0,0)"/>
<path d="" fill="#000000" transform="translate(0,0)"/>
<path d="" fill="#000000" transform="translate(0,0)"/>
<path d="" fill="#000000" transform="translate(0,0)"/>
<path d="" fill="#000000" transform="translate(0,0)"/>
<path d="" fill="#000000" transform="translate(0,0)"/>
<path d="" fill="#000000" transform="translate(0,0)"/>
<path d="" fill="#000000" transform="translate(0,0)"/>
<path d="" fill="#000000" transform="translate(0,0)"/>
<path d="" fill="#000000" transform="translate(0,0)"/>
<path d="" fill="#000000" transform="translate(0,0)"/>
<path d="" fill="#000000" transform="translate(0,0)"/>
<path d="" fill="#000000" transform="translate(0,0)"/>
<path d="" fill="#000000" transform="translate(0,0)"/>
<path d="" fill="#000000" transform="translate(0,0)"/>
<path d="" fill="#000000" transform="translate(0,0)"/>
<path d="" fill="#000000" transform="translate(0,0)"/>
<path d="" fill="#000000" transform="translate(0,0)"/>
<path d="" fill="#000000" transform="translate(0,0)"/>
<path d="" fill="#000000" transform="translate(0,0)"/>
<path d="" fill="#000000" transform="translate(0,0)"/>
<path d="" fill="#000000" transform="translate(0,0)"/>
<path d="" fill="#000000" transform="translate(0,0)"/>
<path d="" fill="#000000" transform="translate(0,0)"/>
<path d="" fill="#000000" transform="translate(0,0)"/>
<path d="" fill="#000000" transform="translate(0,0)"/>
<path d="" fill="#000000" transform="translate(0,0)"/>
<path d="" fill="#F0493D" transform="translate(0,0)"/>
<path d="" fill="#F0493D" transform="translate(0,0)"/>
<path d="" fill="#F0493D" transform="translate(0,0)"/>
<path d="" fill="#F0493D" transform="translate(0,0)"/>
<path d="" fill="#000000" transform="translate(0,0)"/>
<path d="" fill="#F0493D" transform="translate(0,0)"/>
<path d="" fill="#000000" transform="translate(0,0)"/>
<path d="" fill="#F0493D" transform="translate(0,0)"/>
<path d="" fill="#000000" transform="translate(0,0)"/>
<path d="" fill="#000000" transform="translate(0,0)"/>
<path d="" fill="#000000" transform="translate(0,0)"/>
<path d="" fill="#F0493D" transform="translate(0,0)"/>
<path d="" fill="#000000" transform="translate(0,0)"/>
<path d="" fill="#F0493D" transform="translate(0,0)"/>
<path d="" fill="#000000" transform="translate(0,0)"/>
<path d="" fill="#000000" transform="translate(0,0)"/>
<path d="" fill="#F0493D" transform="translate(0,0)"/>
<path d="" fill="#F0493D" transform="translate(0,0)"/>
<path d="" fill="#F0493D" transform="translate(0,0)"/>
<path d="" fill="#000000" transform="translate(0,0)"/>
</svg>
